HIERARCHY
ROOT Hips
{
	OFFSET 0.000000 0.000000 0.000000
	CHANNELS 6 Xposition Yposition Zposition Zrotation Yrotation Xrotation 
	JOINT LHipJoint
	{
		OFFSET 0.000000 0.000000 0.000000
		CHANNELS 3 Zrotation Yrotation Xrotation
		JOINT LeftUpLeg
		{
			OFFSET 1.363060 -1.794630 0.839290
			CHANNELS 3 Zrotation Yrotation Xrotation
			JOINT LeftLeg
			{
				OFFSET 2.448110 -6.726130 0.000000
				CHANNELS 3 Zrotation Yrotation Xrotation
				JOINT LeftFoot
				{
					OFFSET 2.562200 -7.039590 0.000000
					CHANNELS 3 Zrotation Yrotation Xrotation
					JOINT LeftToeBase
					{
						OFFSET 0.157640 -0.433110 2.322550
						CHANNELS 3 Zrotation Yrotation Xrotation
						End Site
						{
							OFFSET 0.000000 0.000000 0.000000
						}
					}
				}
			}
		}
	}
	JOINT RHipJoint
	{
		OFFSET 0.000000 0.000000 0.000000
		CHANNELS 3 Zrotation Yrotation Xrotation
		JOINT RightUpLeg
		{
			OFFSET -1.305520 -1.794630 0.839290
			CHANNELS 3 Zrotation Yrotation Xrotation
			JOINT RightLeg
			{
				OFFSET -2.542530 -6.985550 0.000000
				CHANNELS 3 Zrotation Yrotation Xrotation
				JOINT RightFoot
				{
					OFFSET -2.568260 -7.056230 0.000000
					CHANNELS 3 Zrotation Yrotation Xrotation
					JOINT RightToeBase
					{
						OFFSET -0.164730 -0.452590 2.363150
						CHANNELS 3 Zrotation Yrotation Xrotation
						End Site
						{
							OFFSET 0.000000 0.000000 0.000000
						}
					}
				}
			}
		}
	}
	JOINT LowerBack
	{
		OFFSET 0.000000 0.000000 0.000000
		CHANNELS 3 Zrotation Yrotation Xrotation
		JOINT Spine
		{
			OFFSET 0.028270 2.035590 -0.193380
			CHANNELS 3 Zrotation Yrotation Xrotation
			JOINT Spine1
			{
				OFFSET 0.056720 2.048850 -0.042750
				CHANNELS 3 Zrotation Yrotation Xrotation
				JOINT Neck
				{
					OFFSET 0.000000 0.000000 0.000000
					CHANNELS 3 Zrotation Yrotation Xrotation
					JOINT Neck1
					{
						OFFSET -0.054170 1.746240 0.172020
						CHANNELS 3 Zrotation Yrotation Xrotation
						JOINT Head
						{
							OFFSET 0.104070 1.761360 -0.123970
							CHANNELS 3 Zrotation Yrotation Xrotation
							End Site
							{
								OFFSET 0.000000 0.000000 0.000000
							}
						}
					}
				}
				JOINT LeftShoulder
				{
					OFFSET 0.000000 0.000000 0.000000
					CHANNELS 3 Zrotation Yrotation Xrotation
					JOINT LeftArm
					{
						OFFSET 3.362410 1.200890 -0.311210
						CHANNELS 3 Zrotation Yrotation Xrotation
						JOINT LeftForeArm
						{
							OFFSET 4.983000 -0.000000 -0.000000
							CHANNELS 3 Zrotation Yrotation Xrotation
							JOINT LeftHand
							{
								OFFSET 3.483560 -0.000000 -0.000000
								CHANNELS 3 Zrotation Yrotation Xrotation
								JOINT LeftFingerBase
								{
									OFFSET 0.000000 0.000000 0.000000
									CHANNELS 3 Zrotation Yrotation Xrotation
									JOINT LeftHandIndex1
									{
										OFFSET 0.715260 -0.000000 -0.000000
										CHANNELS 3 Zrotation Yrotation Xrotation
										End Site
										{
											OFFSET 0.000000 0.000000 0.000000
										}
									}
								}
								JOINT LThumb
								{
									OFFSET 0.000000 0.000000 0.000000
									CHANNELS 3 Zrotation Yrotation Xrotation
									End Site
									{
										OFFSET 0.000000 0.000000 0.000000
									}
								}
							}
						}
					}
				}
				JOINT RightShoulder
				{
					OFFSET 0.000000 0.000000 0.000000
					CHANNELS 3 Zrotation Yrotation Xrotation
					JOINT RightArm
					{
						OFFSET -3.136600 1.374050 -0.404650
						CHANNELS 3 Zrotation Yrotation Xrotation
						JOINT RightForeArm
						{
							OFFSET -5.241900 -0.000000 -0.000000
							CHANNELS 3 Zrotation Yrotation Xrotation
							JOINT RightHand
							{
								OFFSET -3.444170 -0.000000 -0.000000
								CHANNELS 3 Zrotation Yrotation Xrotation
								JOINT RightFingerBase
								{
									OFFSET 0.000000 0.000000 0.000000
									CHANNELS 3 Zrotation Yrotation Xrotation
									JOINT RightHandIndex1
									{
										OFFSET -0.622530 -0.000000 -0.000000
										CHANNELS 3 Zrotation Yrotation Xrotation
										End Site
										{
											OFFSET 0.000000 0.000000 0.000000
										}
									}
								}
								JOINT RThumb
								{
									OFFSET 0.000000 0.000000 0.000000
									CHANNELS 3 Zrotation Yrotation Xrotation
									End Site
									{
										OFFSET 0.000000 0.000000 0.000000
									}
								}
							}
						}
					}
				}
			}
		}
	}
}
MOTION
Frames: 8
Frame Time: 0.008333
0.766647 18.457482 9.216308 -11.116525 1.023247 10.184261 7.668925 4.664231 -0.996844 -13.692363 -35.969087 11.410136 -3.488789 -1.413323 -0.225412 -13.466272 39.709492 -16.267656 0.000200 -0.091300 -0.250900 1.343908 -4.365543 1.400123 22.530503 20.564512 -3.579176 3.325632 -2.426287 7.057866 7.318872 -23.129587 -2.099522 -0.007900 -0.575300 1.580800 -7.015174 1.124544 5.977828 36.103711 4.758502 -11.935915 -7.878045 -2.976424 -16.241357 -6.114516 -4.061881 -22.657627 -2.531935 -2.058774 45.644671 -1.074800 -1.032500 14.369700 -8.507500 -8.984800 1.873542 -61.901040 -47.163885 35.918514 32.457085 -30.727559 -12.341060 -1.075780 0.307648 -25.719558 21.427623 -12.449726 -5.330100 -7.125000 0.000000 0.000000 -3.487500 15.805100 2.410300 5.719833 11.537680 5.697312 69.146088 41.446818 39.353573 -35.439131 37.653408 -15.530315 -0.207059 2.523076 -8.090471 9.330998 -37.896315 -6.010300 7.125000 0.000000 0.000000 54.009200 -62.184300 -26.545300 
0.770756 18.458642 9.230849 -11.010563 0.955917 10.292109 7.601274 4.645149 -1.051202 -13.768684 -35.945171 11.464589 -3.496059 -1.420706 -0.285488 -13.437148 39.691996 -16.408808 0.000000 0.012500 0.034200 1.257248 -4.348595 1.306352 22.511180 20.636688 -3.509384 3.326932 -2.423282 7.054373 7.331542 -23.155513 -2.163569 -0.009700 -0.636200 1.748200 -6.350087 1.077053 6.336896 35.124632 4.910900 -12.766677 -8.287277 -2.984397 -16.106913 -5.996958 -4.044437 -22.851579 -2.046125 -2.202682 46.275106 -0.975200 -0.987500 14.526100 -8.565727 -8.834087 2.051136 -63.587439 -46.201927 34.781490 32.827525 -31.298554 -12.688082 -1.077957 0.253266 -25.685330 21.577100 -12.533558 -5.388100 -7.125000 0.000000 0.000000 -3.368300 15.755200 2.331300 5.939185 11.482341 5.773748 68.962930 41.601937 39.059562 -36.069507 38.065777 -15.981501 -0.243064 2.506023 -6.902520 10.203014 -37.525586 -6.591700 7.125000 0.000000 0.000000 54.300300 -61.686000 -26.108900 
0.776341 18.458852 9.244336 -10.850367 0.834034 10.341328 7.539518 4.639994 -1.071981 -13.909763 -35.769950 11.475865 -3.500305 -1.422991 -0.320401 -13.392215 39.626596 -16.347180 -0.000000 -0.006300 -0.017200 1.181124 -4.337868 1.247626 22.426257 20.748286 -3.413956 3.325453 -2.429689 7.088385 7.350722 -23.179273 -2.270115 -0.010600 -0.663800 1.824200 -5.799995 1.029412 6.509035 34.236918 4.969261 -13.227708 -8.672864 -2.968668 -15.971822 -5.951669 -4.050988 -23.086492 -1.527321 -2.363657 46.782653 -0.859200 -0.946600 14.632400 -8.611943 -8.701148 2.177327 -65.232728 -45.287926 33.642744 33.283886 -31.914745 -13.089717 -1.075197 0.177239 -25.789854 21.636767 -12.435709 -5.342600 -7.125000 0.000000 0.000000 -3.298800 15.930500 2.270500 6.136574 11.455027 5.840792 67.972298 42.330589 39.328497 -36.514872 38.240525 -16.274144 -0.263945 2.514335 -7.015197 10.444999 -37.328729 -6.734600 7.125000 0.000000 0.000000 54.264700 -61.500800 -25.851200 
0.782347 18.457588 9.257506 -10.692658 0.701066 10.403176 7.479046 4.628101 -1.087624 -13.981519 -35.455411 11.352885 -3.498690 -1.410859 -0.316815 -13.319389 39.481427 -16.122270 0.000100 -0.069100 -0.189900 1.108755 -4.328662 1.197330 22.331400 20.818444 -3.365880 3.322791 -2.436078 7.115014 7.364305 -23.197841 -2.292467 -0.008500 -0.593700 1.631300 -5.300959 0.994380 6.634395 33.437699 5.013841 -13.621475 -9.018097 -2.945844 -15.878275 -5.930461 -4.074866 -23.243155 -1.121911 -2.494632 47.127176 -0.776300 -0.910000 14.679700 -8.648356 -8.607761 2.282717 -66.750691 -44.389291 32.577837 33.638725 -32.423986 -13.416140 -1.076231 0.112702 -25.982660 21.692948 -12.380714 -5.317900 -7.125000 0.000000 0.000000 -3.236100 16.045400 2.219100 6.306621 11.491261 5.873345 65.880638 43.562689 40.654002 -36.417904 37.916153 -16.127171 -0.225992 2.562565 -9.120319 9.061886 -37.724748 -5.797400 7.125000 0.000000 0.000000 53.560100 -62.181300 -26.249100 
0.784349 18.456429 9.271731 -10.564208 0.538429 10.461492 7.421569 4.620981 -1.102000 -14.024604 -35.158230 11.255808 -3.495711 -1.394867 -0.308467 -13.285032 39.416430 -15.893886 0.000600 -0.163200 -0.448300 1.038099 -4.322772 1.147194 22.284531 20.918827 -3.282499 3.322279 -2.428940 7.108226 7.375578 -23.218852 -2.290531 -0.006300 -0.512800 1.409200 -4.844003 0.968638 6.755010 32.665732 5.060706 -14.009153 -9.296166 -2.915957 -15.786128 -5.877346 -4.073141 -23.352536 -0.737164 -2.610532 47.394566 -0.695600 -0.871000 14.704300 -8.679387 -8.521360 2.358572 -68.076779 -43.447348 31.735967 33.942900 -32.883257 -13.706097 -1.064717 0.048852 -26.118178 21.605353 -12.278764 -5.232400 -7.125000 0.000000 0.000000 -3.277400 16.231500 2.234400 6.469625 11.502137 5.896884 64.542440 44.347244 41.236563 -36.656699 37.912221 -16.263940 -0.206653 2.589383 -10.131761 8.326313 -38.174864 -5.322000 7.125000 0.000000 0.000000 53.537300 -62.696300 -26.867900 
0.782031 18.456007 9.286377 -10.513023 0.344485 10.499101 7.368684 4.619385 -1.102690 -14.048019 -35.032288 11.272453 -3.498255 -1.370276 -0.253578 -13.243969 39.350376 -16.066554 0.000100 -0.055900 -0.153700 0.973376 -4.319964 1.105459 22.348070 21.034746 -3.165132 3.320878 -2.425221 7.121876 7.371596 -23.201474 -2.326359 -0.005400 -0.474700 1.304300 -4.404514 0.982514 6.839549 31.946758 5.137213 -14.321513 -9.558331 -2.864566 -15.680636 -5.826017 -4.067488 -23.417381 -0.314882 -2.754348 47.594664 -0.605900 -0.839400 14.705200 -8.704531 -8.452553 2.408453 -69.168702 -42.539897 31.255997 34.171766 -33.263243 -13.941192 -1.051914 0.000796 -26.042714 21.536319 -12.204200 -5.166000 -7.125000 0.000000 0.000000 -3.312300 16.374800 2.247900 6.628107 11.501551 5.915331 63.602727 44.866880 41.215361 -36.916219 37.969726 -16.428541 -0.201244 2.603159 -10.315752 8.182734 -38.325562 -5.234100 7.125000 0.000000 0.000000 53.638000 -62.842700 -27.113400 
0.779396 18.454111 9.299337 -10.497592 0.237867 10.564898 7.316563 4.606345 -1.112437 -13.990302 -34.967170 11.204426 -3.498313 -1.327773 -0.152856 -13.171638 39.213286 -16.323823 0.000500 0.138100 0.379400 0.912993 -4.308657 1.058553 22.431607 21.047195 -3.135384 3.317601 -2.432381 7.155090 7.355948 -23.161044 -2.331667 -0.003800 -0.399200 1.096900 -3.972521 1.010828 6.928435 31.283284 5.241528 -14.699586 -9.797282 -2.812820 -15.577524 -5.823995 -4.067540 -23.414606 0.106994 -2.899451 47.708876 -0.511600 -0.812500 14.684600 -8.722849 -8.413124 2.468380 -70.094338 -41.765689 31.063078 34.245725 -33.481040 -14.054602 -1.053181 -0.010332 -25.897463 21.616712 -12.374593 -5.250900 -7.125000 0.000000 0.000000 -3.258900 16.198800 2.224100 6.780192 11.522613 5.891860 62.544960 45.087320 41.018942 -37.068699 37.992857 -16.530237 -0.212843 2.619119 -10.442925 8.419965 -38.366245 -5.400400 7.125000 0.000000 0.000000 53.938100 -62.814800 -27.278300 
0.776025 18.451898 9.311665 -10.410686 0.232782 10.647157 7.270091 4.587781 -1.138671 -13.921950 -34.766570 10.985887 -3.488930 -1.283313 -0.077043 -13.119289 39.093569 -16.117677 0.000200 0.097600 0.268100 0.859745 -4.291517 1.010711 22.400062 21.006499 -3.163469 3.315928 -2.438833 7.177723 7.342540 -23.116979 -2.346037 -0.003800 -0.400700 1.100900 -3.695329 1.005645 7.025814 30.707547 5.298878 -15.104049 -9.914978 -2.778540 -15.496234 -5.824847 -4.045181 -23.380727 0.445314 -2.984203 47.744098 -0.427400 -0.777500 14.644800 -8.738362 -8.386038 2.518767 -70.855304 -41.115088 30.985213 34.242631 -33.604544 -14.097950 -1.058214 -0.017456 -25.861918 21.687743 -12.537322 -5.334100 -7.125000 0.000000 0.000000 -3.212000 16.023700 2.204100 6.909411 11.542888 5.874423 61.701835 45.239973 40.682871 -37.107235 37.965609 -16.561820 -0.241341 2.639134 -10.271542 9.269993 -38.383445 -5.993700 7.125000 0.000000 0.000000 54.779300 -62.604300 -27.578600 
